<?xml version="1.0" encoding="UTF-8" standalone="no"?>
<!-- Svg Vector Icons : http://www.onlinewebfonts.com/icon -->

<svg
   xmlns:dc="http://purl.org/dc/elements/1.1/"
   xmlns:cc="http://creativecommons.org/ns#"
   xmlns:rdf="http://www.w3.org/1999/02/22-rdf-syntax-ns#"
   xmlns:svg="http://www.w3.org/2000/svg"
   xmlns="http://www.w3.org/2000/svg"
   xmlns:sodipodi="http://sodipodi.sourceforge.net/DTD/sodipodi-0.dtd"
   xmlns:inkscape="http://www.inkscape.org/namespaces/inkscape"
   version="1.1"
   x="0px"
   y="0px"
   viewBox="0 0 1000 1000"
   enable-background="new 0 0 1000 1000"
   xml:space="preserve"
   id="svg37"
   sodipodi:docname="clear1.svg"
   inkscape:version="0.92.4 5da689c313, 2019-01-14"><defs
   id="defs41" /><sodipodi:namedview
   pagecolor="#ffffff"
   bordercolor="#666666"
   borderopacity="1"
   objecttolerance="10"
   gridtolerance="10"
   guidetolerance="10"
   inkscape:pageopacity="0"
   inkscape:pageshadow="2"
   inkscape:window-width="1920"
   inkscape:window-height="1036"
   id="namedview39"
   showgrid="false"
   inkscape:zoom="0.85"
   inkscape:cx="261.17647"
   inkscape:cy="500"
   inkscape:window-x="0"
   inkscape:window-y="0"
   inkscape:window-maximized="1"
   inkscape:current-layer="g35" />
<metadata
   id="metadata29"> Svg Vector Icons : http://www.onlinewebfonts.com/icon <rdf:RDF><cc:Work
     rdf:about=""><dc:format>image/svg+xml</dc:format><dc:type
       rdf:resource="http://purl.org/dc/dcmitype/StillImage" /><dc:title></dc:title></cc:Work></rdf:RDF></metadata>
<g
   id="g35"><path
     d="M 304,206 10,500 304,794 H 990 V 206 Z M 941,745 H 330.6 L 85.6,500 335.30588,263.23529 941,255 Z"
     id="path31"
     inkscape:connector-curvature="0"
     sodipodi:nodetypes="cccccccccccc" /><path
     d="M442.8,690.6l155.9-155.9l155.9,155.9l34.6-34.6L633.4,500l155.9-155.9l-34.6-34.6L598.7,465.4L442.8,309.4l-34.6,34.6L564.1,500L408.2,655.9L442.8,690.6z"
     id="path33" /><path
     style="fill:#000000;fill-opacity:0.23897514;stroke-width:1.17647064"
     d="M 208.83584,622.36525 86.499447,500.02461 l 2.926747,-2.86254 c 1.609711,-1.5744 57.638546,-54.70702 124.508516,-118.07249 l 121.58176,-115.20995 53.71235,-0.79091 c 29.54179,-0.43499 151.65353,-2.07221 271.35942,-3.63825 119.70588,-1.56604 231.54411,-3.14294 248.52941,-3.50421 L 940,255.2894 V 499.99765 744.70588 H 635.58612 331.17222 Z m 312.63143,-9.12661 77.35626,-77.3496 77.35626,77.3496 c 42.54594,42.54228 77.89102,77.3496 78.54462,77.3496 0.65361,0 8.85181,-7.67715 18.21825,-17.06031 l 17.02987,-17.06031 -21.15884,-21.4691 c -11.63735,-11.80801 -46.57057,-47.0135 -77.62937,-78.23441 l -56.47054,-56.76532 77.34898,-77.35565 c 42.54196,-42.54561 77.349,-77.87695 77.349,-78.51409 0,-1.53324 -33.15542,-34.71729 -34.68735,-34.71729 -0.6536,0 -35.99868,34.80732 -78.54462,77.3496 l -77.35626,77.3496 -77.35626,-77.3496 c -42.54594,-42.54228 -77.87755,-77.3496 -78.51469,-77.3496 -1.53324,0 -34.71729,33.15543 -34.71729,34.68735 0,0.65361 34.80732,35.99869 77.3496,78.54463 L 562.93449,500 l -77.3496,77.35626 c -42.54228,42.54594 -77.3496,77.87755 -77.3496,78.51469 0,1.53324 33.15543,34.71729 34.68736,34.71729 0.6536,0 35.99868,-34.80732 78.54462,-77.3496 z"
     id="path45"
     inkscape:connector-curvature="0" /><path
     style="opacity:1;vector-effect:none;fill:#000000;fill-opacity:0.23897514;stroke-width:1.38408315;stroke-linecap:butt;stroke-linejoin:miter;stroke-miterlimit:4;stroke-dasharray:none;stroke-dashoffset:0;stroke-opacity:1"
     d="M 209.13774,622.64706 87.103252,500.58824 98.551626,489.26902 c 10.739324,-10.61815 16.105394,-15.75913 45.445014,-43.5386 6.40404,-6.06349 16.93628,-16.05395 23.40499,-22.20101 20.01061,-19.01562 33.1738,-31.49785 44.57926,-42.27309 17.16026,-16.21206 32.25087,-30.50744 45.552,-43.15152 6.73132,-6.39882 16.79015,-15.9322 22.35295,-21.18529 5.56278,-5.25309 15.65163,-14.7825 22.41965,-21.17647 6.76803,-6.39397 16.6373,-15.93184 21.93171,-21.19527 l 9.6262,-9.56988 11.59771,-0.74965 c 6.37874,-0.41231 36.74477,-1.00202 67.48007,-1.31047 30.73529,-0.30845 75.47058,-0.82918 99.41176,-1.15717 108.66293,-1.48868 132.04091,-1.80665 171.76471,-2.33623 C 786.16765,258.0639 822.84622,257.5195 915,255.9975 l 25,-0.4129 V 500.14525 744.70588 H 635.58612 331.17222 Z m 312.19913,-9.33999 77.46374,-77.28115 54.42323,53.88753 c 29.93277,29.63814 64.87418,64.45421 77.64758,77.36906 l 23.22436,23.48151 3.24623,-2.35941 c 1.78543,-1.29768 9.85405,-9.01182 17.93028,-17.14254 l 14.68407,-14.78313 -9.96702,-10.29829 c -5.48187,-5.66406 -40.41158,-40.87189 -77.62158,-78.23961 l -67.65455,-67.94131 72.96384,-73.23517 c 40.13011,-40.27932 75.01446,-75.45415 77.52077,-78.16626 l 4.55694,-4.93112 -14.58327,-14.89116 c -15.51949,-15.84716 -20.83227,-20.3388 -22.05784,-18.64863 -0.41839,0.57699 -35.32112,35.44298 -77.56163,77.47996 L 598.75111,464.03824 524.96379,390.518 c -40.58303,-40.43612 -75.68114,-75.24228 -77.99583,-77.347 l -4.20849,-3.82678 -17.30563,17.30563 -17.30563,17.30563 6.20155,6.55167 c 3.41085,3.60342 38.2165,38.6923 77.34589,77.97527 l 71.14433,71.4236 -75.2413,75.63523 c -41.3827,41.59937 -76.16875,76.32701 -77.30234,77.17251 -1.13358,0.84552 -2.06105,1.99378 -2.06105,2.5517 0,1.30776 33.18816,35.12255 34.58363,35.23661 0.57981,0.0474 35.91289,-34.69035 78.51795,-77.195 z"
     id="path47"
     inkscape:connector-curvature="0" /><path
     style="opacity:1;vector-effect:none;fill:#000000;fill-opacity:0.23897514;stroke-width:1.38408315;stroke-linecap:butt;stroke-linejoin:miter;stroke-miterlimit:4;stroke-dasharray:none;stroke-dashoffset:0;stroke-opacity:1"
     d="M 209.99788,622.26813 87.647059,499.83036 97.224253,490.79754 C 130.67593,459.24724 311.16472,287.844 321.92252,277.41028 l 13.09897,-12.7044 h 12.88142 c 7.08477,0 13.17185,-0.29045 13.52687,-0.64546 0.355,-0.355 20.69323,-0.82464 45.19607,-1.04364 24.50284,-0.219 63.87415,-0.62558 87.4918,-0.90352 23.61764,-0.27793 62.66176,-0.56633 86.7647,-0.64089 24.10294,-0.0745 43.82327,-0.56869 43.82296,-1.09808 -3.3e-4,-0.52939 18.92614,-0.98322 42.05882,-1.00852 54.67206,-0.0598 194.99789,-2.01325 222.0594,-3.09128 3.23529,-0.12888 16.07353,-0.13748 28.52941,-0.0191 L 940,256.47059 V 500.58824 744.70588 H 636.17435 332.34869 Z m 269.85048,32.7668 c 19.8187,-19.55433 54.69218,-54.09207 77.49664,-76.75055 l 41.46264,-41.19724 12.0664,11.75054 c 6.63651,6.46281 41.5204,41.05176 77.51975,76.86433 56.91732,56.62203 65.73949,64.95515 67.64743,63.89747 1.20674,-0.66896 9.60584,-8.34692 18.66466,-17.06212 l 16.47059,-15.84583 -71.28311,-71.58106 c -39.20571,-39.36958 -74.11581,-74.65106 -77.578,-78.40328 l -6.29488,-6.82223 21.71021,-22.0013 c 11.94062,-12.10072 46.45365,-46.91838 76.69564,-77.37258 30.24199,-30.4542 54.98543,-55.88965 54.98543,-56.52322 0,-1.32898 -30.40295,-31.95578 -33.37116,-33.61687 -1.62226,-0.90787 -15.82169,12.60691 -79.25961,75.43797 -42.50581,42.09919 -77.5833,76.54398 -77.94998,76.54398 -0.36667,0 -35.42969,-34.41176 -77.91782,-76.47059 -42.48813,-42.05882 -77.60207,-76.47059 -78.031,-76.47059 -0.42892,0 -8.42827,7.69873 -17.77633,17.10829 l -16.99648,17.10829 3.15384,3.77406 c 1.73463,2.07574 36.20889,37.02453 76.60946,77.66399 40.40059,40.63946 73.28878,74.39042 73.08487,75.00214 -0.20391,0.61173 -34.51748,35.59771 -76.25239,77.74661 -41.73489,42.14892 -76.06637,77.11395 -76.29217,77.7001 -0.45752,1.18761 32.7534,35.073 34.37489,35.073 0.56458,0 17.2418,-15.99899 37.06048,-35.55331 z"
     id="path49"
     inkscape:connector-curvature="0" /><path
     style="opacity:1;vector-effect:none;fill:#000000;fill-opacity:0.23897514;stroke-width:1.38408315;stroke-linecap:butt;stroke-linejoin:miter;stroke-miterlimit:4;stroke-dasharray:none;stroke-dashoffset:0;stroke-opacity:1"
     d="M 157.64706,646.47059 11.180014,500 157.64706,353.52941 304.11411,207.05882 H 646.76293 989.41176 V 500 792.94118 H 646.76293 304.11411 Z M 941.17647,500.01289 V 254.14343 l -28.52941,0.64705 c -33.81127,0.76684 -538.27414,7.56246 -561.38828,7.56246 H 335.31815 L 210.60026,380.64328 C 142.00541,445.70296 85.882353,499.30496 85.882353,499.75882 c 0,0.45387 55.190227,56.01733 122.644957,123.47437 l 122.64494,122.64916 h 305.00211 305.00211 z"
     id="path51"
     inkscape:connector-curvature="0" /><path
     style="opacity:1;vector-effect:none;fill:#000000;fill-opacity:0.23897514;stroke-width:1.38408315;stroke-linecap:butt;stroke-linejoin:miter;stroke-miterlimit:4;stroke-dasharray:none;stroke-dashoffset:0;stroke-opacity:1"
     d="M 157.64706,646.47059 11.180014,500 157.64706,353.52941 304.11411,207.05882 H 646.76293 989.41176 V 500 792.94118 H 646.76293 304.11411 Z M 941.17647,500.01289 V 254.14343 l -28.52941,0.64705 c -33.79164,0.7664 -538.26748,7.56246 -561.36594,7.56246 H 335.36284 L 210.62259,380.66639 c -68.60713,65.0724 -124.740237,118.67439 -124.740237,119.11554 0,0.44116 55.190227,55.99422 122.644957,123.45126 l 122.64494,122.64916 h 305.00211 305.00211 z"
     id="path53"
     inkscape:connector-curvature="0" /><path
     style="opacity:1;vector-effect:none;fill:#fcf8f2;fill-opacity:0.9922179;stroke-width:1.38408315;stroke-linecap:butt;stroke-linejoin:miter;stroke-miterlimit:4;stroke-dasharray:none;stroke-dashoffset:0;stroke-opacity:1"
     d="M 157.41176,646.47059 10.94472,500 157.41176,353.52941 303.87881,207.05882 H 646.52764 989.17647 V 500 792.94118 H 646.52764 303.87881 Z M 940.94118,500.01289 V 254.14343 l -28.52942,0.64938 c -33.37197,0.75961 -538.32674,7.56013 -561.3571,7.56013 H 335.4318 L 216.12767,375.39793 C 150.51039,437.57268 94.180096,491.04594 90.949234,494.22741 l -5.874294,5.78448 122.93101,122.93524 122.931,122.93522 h 305.00212 305.00211 z"
     id="path4563"
     inkscape:connector-curvature="0" /><path
     style="opacity:1;vector-effect:none;fill:#000000;fill-opacity:0.23897514;stroke-width:1.38408315;stroke-linecap:butt;stroke-linejoin:miter;stroke-miterlimit:4;stroke-dasharray:none;stroke-dashoffset:0;stroke-opacity:1"
     d="M 210.94118,622.76867 C 144.29412,555.72139 89.606729,500.46078 89.413645,499.96732 89.220562,499.47385 104.5735,484.29122 123.53129,466.22814 182.10328,410.42045 320.95053,278.60822 328.74496,271.4121 l 7.39051,-6.8232 90.93227,-1.09855 c 50.01274,-0.6042 124.2852,-1.63937 165.04991,-2.30038 40.7647,-0.66101 120.97059,-1.79645 178.23529,-2.5232 57.26471,-0.72674 104.64706,-1.65054 105.29412,-2.05288 0.64706,-0.40235 15.33823,-0.58231 32.64706,-0.39991 l 31.47059,0.33162 v 244.08014 244.08014 l -303.82353,-0.0165 -303.82353,-0.0165 -121.17647,-121.90415 z m 313.28929,-11.50927 74.46578,-74.07462 28.4754,28.19057 c 15.66148,15.50481 50.55323,50.0885 77.53723,76.85261 l 49.06181,48.66203 3.45317,-2.2097 c 1.89923,-1.21534 10.33414,-8.88589 18.74423,-17.04568 l 15.29109,-14.83597 -77.68803,-78.51325 -77.68802,-78.51325 62.26321,-62.53313 c 76.25879,-76.58938 91.03013,-91.76601 91.03013,-93.52775 0,-1.90174 -24.84793,-27.38028 -30.56954,-31.34536 l -4.66785,-3.23482 -76.57957,75.72858 c -42.11877,41.65072 -77.26776,75.88633 -78.10886,76.07914 -0.84111,0.19282 -35.08424,-32.81038 -76.09585,-73.34042 -41.01161,-40.53006 -76.05741,-74.76346 -77.87954,-76.07424 l -3.31299,-2.38323 -17.17213,17.05999 -17.17214,17.05998 2.34995,2.98749 c 1.29247,1.64311 34.79231,35.71824 74.44406,75.7225 39.65175,40.00426 72.87326,73.90342 73.82555,75.33147 1.5037,2.25493 1.51049,2.91193 0.0516,4.99472 -0.92389,1.31905 -35.16516,36.27825 -76.0917,77.68713 l -74.41191,75.28886 3.53287,4.42229 c 1.94307,2.43227 9.64179,10.43274 17.10826,17.77884 l 13.57541,13.35654 3.88128,-2.74834 c 2.13472,-1.51159 37.3909,-36.08193 78.34706,-76.82298 z"
     id="path4565"
     inkscape:connector-curvature="0" /><path
     style="opacity:1;vector-effect:none;fill:#000000;fill-opacity:0.23897514;stroke-width:1.38408315;stroke-linecap:butt;stroke-linejoin:miter;stroke-miterlimit:4;stroke-dasharray:none;stroke-dashoffset:0;stroke-opacity:1"
     d="M 211.70938,622.98507 C 144.96334,556.03864 90.352941,500.82022 90.352941,500.27751 c 0,-1.61343 33.259829,-33.99258 97.647059,-95.06151 33.32353,-31.60615 75.14706,-71.28414 92.94118,-88.17331 17.79411,-16.88918 37.41604,-35.50706 43.60428,-41.37307 l 11.25134,-10.66548 51.1016,-0.78609 C 415.00428,263.78569 478.5,262.92118 528,262.2969 c 86.02401,-1.0849 261.80021,-3.69665 363.82353,-5.40582 l 47.94118,-0.80315 V 500.39691 744.70588 H 636.41526 333.06581 Z m 240.19723,59.66199 c 4.61105,-4.36765 39.58398,-38.82622 77.71761,-76.57461 l 69.33391,-68.63343 49.52093,49.22383 c 27.23652,27.0731 62.05968,61.62504 77.38482,76.78209 l 27.86388,27.55827 4.48906,-3.10225 c 2.46898,-1.70623 11.06427,-9.37921 19.10065,-17.05104 l 14.6116,-13.9488 -77.25866,-77.86724 c -42.49226,-42.82699 -77.25865,-78.50702 -77.25865,-79.28899 0,-0.78196 29.823,-31.35328 66.27335,-67.93625 71.77641,-72.03763 85.49136,-86.20185 85.49136,-88.29191 0,-1.91226 -26.71412,-28.99414 -31.54632,-31.9806 l -3.98193,-2.46097 -29.00057,28.80625 C 657.16189,404.91491 600.567,460 599.18194,460 c -1.69587,0 -28.70046,-26.02964 -101.11515,-97.46458 -27.7868,-27.41085 -51.78451,-50.66549 -53.32824,-51.67698 -2.76794,-1.81363 -3.04399,-1.60186 -19.95128,15.30544 l -17.14452,17.14452 2.23745,2.95073 c 1.2306,1.6229 35.19333,36.32828 75.47274,77.12306 45.45211,46.03366 73.2353,75.02547 73.2353,76.42116 0,1.39404 -28.50789,31.20225 -75,78.42097 -41.25,41.89467 -75.1799,76.64909 -75.39978,77.23206 -0.45841,1.21538 32.60893,35.13186 34.25229,35.13186 0.59518,0 4.85481,-3.57353 9.46586,-7.94118 z"
     id="path4567"
     inkscape:connector-curvature="0" /><path
     style="opacity:1;vector-effect:none;fill:#f5efef;fill-opacity:1;stroke-width:1.38408315;stroke-linecap:butt;stroke-linejoin:miter;stroke-miterlimit:4;stroke-dasharray:none;stroke-dashoffset:0;stroke-opacity:1"
     d="M 425.93602,672.65222 409.1746,655.8908 487.1134,577.9454 565.05219,500 487.1134,422.0546 l -77.9388,-77.94541 16.76142,-16.76141 16.76141,-16.76141 77.9454,77.93879 77.94541,77.93879 77.9454,-77.93879 77.9454,-77.93879 16.76142,16.76141 16.76141,16.76141 -77.9388,77.94541 -77.93879,77.9454 77.93879,77.9454 77.9388,77.9454 -16.76141,16.76142 -16.76142,16.76142 -77.9454,-77.9388 -77.9454,-77.93879 -77.94541,77.93879 -77.9454,77.9388 z"
     id="path4569"
     inkscape:connector-curvature="0" /><path
     style="opacity:1;vector-effect:none;fill:#f7f7f7;fill-opacity:1;stroke-width:1.38408315;stroke-linecap:butt;stroke-linejoin:miter;stroke-miterlimit:4;stroke-dasharray:none;stroke-dashoffset:0;stroke-opacity:1"
     d="M 158.58824,646.47059 12.121191,500 158.58824,353.52941 305.05528,207.05882 h 342.06059 342.0606 V 500 792.94118 H 647.11587 305.05528 Z M 940.94118,500 V 254.11765 l -15,0.0198 c -8.25,0.0109 -63.70589,0.77459 -123.2353,1.69707 -59.52941,0.92247 -179.70588,2.52109 -267.05882,3.55249 -87.35294,1.0314 -168.37945,2.17389 -180.05891,2.53885 l -21.23537,0.66358 -29.9411,28.35997 c -16.4676,15.59799 -70.41214,66.76535 -119.87675,113.70527 -49.46461,46.9399 -92.346961,87.56381 -95.294115,90.27531 l -5.358462,4.93004 122.939067,123.01114 122.93906,123.01115 h 305.59036 305.59034 z"
     id="path4571"
     inkscape:connector-curvature="0" /></g>
</svg>